<svg aria-hidden="true" style="position: absolute; width: 0; height: 0; overflow: hidden;" version="1.1" xmlns="http://www.w3.org/2000/svg" xmlns:xlink="http://www.w3.org/1999/xlink">
<defs>
<symbol id="icon-blast" viewBox="0 0 33 32">
<path d="M21.593 8.223l-4.534-7.834c-0.301-0.519-1.054-0.519-1.355 0l-4.536 7.834c-0.301 0.519 0.075 1.17 0.676 1.17h9.070c0.602 0 0.979-0.65 0.676-1.17h0.002zM19.217 8.213h-5.671c-0.376 0-0.612-0.407-0.424-0.731l2.834-4.896c0.188-0.324 0.658-0.324 0.846 0l2.834 4.896c0.188 0.324-0.046 0.731-0.424 0.731h0.004z"></path>
<path d="M11.169 23.777l4.536 7.834c0.301 0.519 1.054 0.519 1.355 0l4.536-7.834c0.301-0.519-0.075-1.17-0.676-1.17h-9.070c-0.602 0-0.979 0.65-0.676 1.17h-0.004zM13.547 23.785h5.671c0.375 0 0.612 0.407 0.424 0.731l-2.834 4.896c-0.188 0.324-0.658 0.324-0.846 0l-2.834-4.896c-0.188-0.324 0.046-0.731 0.424-0.731h-0.004z"></path>
<path d="M24.575 21.288l7.855-4.524c0.521-0.3 0.521-1.051 0-1.351l-7.855-4.522c-0.521-0.3-1.173 0.075-1.173 0.674v9.046c0 0.6 0.652 0.976 1.173 0.674v0.002zM24.583 18.916v-5.655c0-0.374 0.408-0.61 0.733-0.423l4.91 2.827c0.325 0.187 0.325 0.656 0 0.844l-4.91 2.827c-0.325 0.187-0.733-0.046-0.733-0.423v0.004z"></path>
<path d="M8.245 10.891l-7.855 4.522c-0.521 0.3-0.521 1.051 0 1.351l7.855 4.524c0.521 0.3 1.173-0.075 1.173-0.674v-9.046c0-0.6-0.652-0.976-1.173-0.674v-0.002zM8.235 13.261v5.655c0 0.374-0.408 0.61-0.733 0.423l-4.91-2.827c-0.325-0.187-0.325-0.656 0-0.844l4.91-2.827c0.325-0.187 0.733 0.046 0.733 0.423v-0.004z"></path>
<path d="M20.172 11.356h-7.58c-0.529 0-0.957 0.427-0.957 0.954v7.56c0 0.527 0.428 0.954 0.957 0.954h7.58c0.529 0 0.957-0.427 0.957-0.954v-7.56c0-0.527-0.428-0.954-0.957-0.954zM19.799 18.544c0 0.527-0.428 0.954-0.957 0.954h-4.924c-0.529 0-0.957-0.427-0.957-0.954v-4.911c0-0.527 0.428-0.954 0.957-0.954h4.924c0.529 0 0.957 0.427 0.957 0.954v4.911z"></path>
</symbol>
<symbol id="icon-hyper" viewBox="0 0 32 32">
<path d="M31.258 8.824c-0.782-1.66-3.498-2.2-7.169-1.71 0.143-3.7-0.649-6.355-2.376-6.977-2.488-0.895-6.175 2.7-9.173 8.511-6.387-1.395-11.509-0.847-12.404 1.641-0.622 1.725 0.918 4.028 3.859 6.278-2.717 2.515-4.034 4.952-3.254 6.612s3.498 2.2 7.169 1.71c-0.143 3.7 0.649 6.355 2.376 6.977 2.488 0.895 6.175-2.7 9.173-8.511 6.387 1.395 11.509 0.847 12.404-1.641 0.622-1.725-0.918-4.028-3.86-6.278 2.717-2.517 4.034-4.954 3.254-6.612zM20.283 4.112c1.147 0.414 1.927 1.586 2.315 3.246-2.111 0.41-4.467 1.118-6.906 2.107-0.851-0.256-1.687-0.479-2.506-0.672 2.271-3.483 5.013-5.431 7.095-4.683l0.002 0.002zM21.394 17.942c-0.271 0.75-0.567 1.473-0.882 2.164-0.658 0.38-1.349 0.744-2.072 1.082-0.723 0.34-1.441 0.641-2.154 0.906-0.733-0.195-1.479-0.429-2.229-0.7-1.752-0.63-3.353-1.403-4.74-2.25 0.231-1.609 0.658-3.334 1.288-5.086 0.271-0.75 0.567-1.473 0.882-2.164 0.658-0.38 1.349-0.744 2.072-1.082 0.723-0.34 1.441-0.641 2.153-0.906 0.733 0.195 1.479 0.429 2.229 0.7 1.752 0.63 3.353 1.401 4.74 2.25-0.231 1.609-0.658 3.334-1.288 5.086zM23.207 13.188c1.139 0.742 2.114 1.536 2.883 2.338-1.151 1.452-2.868 2.927-4.984 4.225 0.221-0.548 0.437-1.109 0.641-1.681 0.601-1.668 1.086-3.311 1.458-4.883h0.002zM20.214 20.733c-0.338 0.687-0.695 1.34-1.069 1.95-0.708-0.101-1.439-0.242-2.185-0.42 0.544-0.231 1.093-0.475 1.641-0.733 0.55-0.258 1.086-0.525 1.611-0.796h0.002zM15.633 22.327c-2.349 0.8-4.58 1.185-6.431 1.145-0.128-1.105-0.118-2.361 0.038-3.712 1.448 0.716 3.023 1.391 4.691 1.992 0.571 0.206 1.139 0.397 1.704 0.576h-0.002zM8.793 18.814c-1.139-0.742-2.114-1.536-2.883-2.338 1.151-1.452 2.868-2.927 4.984-4.225-0.221 0.548-0.437 1.109-0.641 1.681-0.601 1.668-1.086 3.311-1.458 4.883h-0.002zM11.787 11.268c0.338-0.687 0.695-1.34 1.069-1.95 0.708 0.101 1.439 0.242 2.185 0.42-0.544 0.231-1.093 0.475-1.641 0.733s-1.086 0.525-1.611 0.796h-0.002zM18.071 10.251c-0.571-0.206-1.139-0.397-1.704-0.576 2.349-0.8 4.58-1.185 6.431-1.145 0.128 1.105 0.118 2.362-0.038 3.712-1.448-0.716-3.023-1.391-4.691-1.992h0.002zM4.112 11.719c0.75-2.082 4-2.952 8.131-2.479-0.374 0.754-0.735 1.542-1.080 2.359-2.319 1.248-4.364 2.609-6.026 3.975-1.032-1.359-1.437-2.706-1.025-3.855zM4.565 21.38c-0.519-1.103-0.24-2.483 0.658-3.933 1.023 0.691 2.17 1.368 3.423 2.015-0.3 1.376-0.511 2.691-0.63 3.92-1.689-0.231-2.931-0.897-3.45-2v-0.002zM11.719 27.891c-1.147-0.414-1.927-1.586-2.315-3.246 2.111-0.41 4.467-1.118 6.906-2.107 0.851 0.256 1.687 0.479 2.506 0.672-2.271 3.483-5.013 5.431-7.095 4.683l-0.002-0.002zM27.891 20.283c-0.75 2.082-4 2.952-8.131 2.479 0.374-0.754 0.735-1.542 1.080-2.359 2.319-1.248 4.364-2.609 6.026-3.975 1.032 1.359 1.437 2.706 1.025 3.855zM26.777 14.556c-1.023-0.691-2.17-1.368-3.422-2.015 0.3-1.376 0.511-2.691 0.63-3.92 1.689 0.231 2.931 0.897 3.45 2s0.239 2.483-0.658 3.933v0.002z"></path>
<path d="M19.089 17.101c0.609-1.706-0.28-3.582-1.986-4.191s-3.582 0.28-4.191 1.986 0.28 3.582 1.986 4.191c1.706 0.609 3.582-0.28 4.191-1.986z"></path>
</symbol>
<symbol id="icon-quantum" viewBox="0 0 32 32">
<path d="M29.121 14.345c-1.199-1.199-3.139-1.199-4.338 0l-4.079 4.079c-1.199 1.199-1.199 3.139 0 4.338s3.139 1.199 4.338 0l4.079-4.079c1.199-1.199 1.199-3.139 0-4.338z"></path>
<path d="M22.486 25.643c-1.245 0-2.416-0.486-3.297-1.365s-1.365-2.052-1.365-3.297c0-1.245 0.486-2.416 1.365-3.297l4.856-4.856c0.88-0.88 2.052-1.365 3.297-1.365s2.416 0.486 3.297 1.365c0.88 0.88 1.363 2.050 1.363 3.297s-0.483 2.418-1.363 3.297l-4.856 4.856c-0.88 0.88-2.052 1.365-3.297 1.365zM27.339 12.277c-1.028 0-1.995 0.4-2.722 1.128l-4.856 4.856c-0.727 0.727-1.128 1.694-1.128 2.722s0.4 1.995 1.128 2.722c0.727 0.727 1.694 1.128 2.722 1.128s1.995-0.4 2.722-1.128l4.856-4.856c0.725-0.725 1.126-1.692 1.126-2.722s-0.4-1.997-1.126-2.722c-0.727-0.727-1.694-1.128-2.722-1.128z"></path>
<path d="M11.298 9.238c-1.199-1.199-3.139-1.199-4.338 0l-4.080 4.080c-1.199 1.199-1.199 3.139 0 4.337s3.139 1.199 4.338 0l4.079-4.079c1.199-1.199 1.199-3.139 0-4.338z"></path>
<path d="M4.663 20.538c-1.245 0-2.416-0.486-3.297-1.365s-1.365-2.052-1.365-3.297c0-1.245 0.486-2.416 1.365-3.297l4.856-4.856c0.88-0.882 2.052-1.365 3.297-1.365s2.416 0.486 3.297 1.365c0.88 0.88 1.363 2.050 1.363 3.297s-0.484 2.418-1.363 3.297l-4.856 4.856c-0.88 0.882-2.052 1.365-3.297 1.365zM9.518 7.17c-1.028 0-1.995 0.4-2.722 1.128l-4.856 4.856c-0.727 0.727-1.128 1.694-1.128 2.722s0.4 1.995 1.128 2.722c0.727 0.727 1.694 1.128 2.722 1.128s1.995-0.4 2.722-1.128l4.856-4.856c0.725-0.725 1.126-1.692 1.126-2.722s-0.4-1.997-1.126-2.722c-0.727-0.727-1.694-1.128-2.722-1.128z"></path>
<path d="M14.345 2.879c-1.199 1.199-1.199 3.139 0 4.338l4.079 4.079c1.199 1.199 3.139 1.199 4.338 0s1.199-3.139 0-4.338l-4.079-4.079c-1.199-1.199-3.139-1.199-4.338 0z"></path>
<path d="M20.981 14.179c-1.245 0-2.416-0.486-3.297-1.365l-4.856-4.856c-0.88-0.88-1.365-2.052-1.365-3.297s0.486-2.416 1.365-3.297c0.88-0.88 2.050-1.363 3.297-1.363s2.418 0.484 3.297 1.363l4.856 4.856c0.88 0.88 1.365 2.052 1.365 3.297s-0.486 2.416-1.365 3.297c-0.88 0.88-2.052 1.365-3.297 1.365zM16.127 0.813c-0.985 0-1.973 0.376-2.722 1.126-0.727 0.727-1.128 1.694-1.128 2.722s0.4 1.995 1.128 2.722l4.856 4.856c0.727 0.727 1.694 1.128 2.722 1.128s1.995-0.4 2.722-1.128c0.727-0.727 1.128-1.694 1.128-2.722s-0.4-1.995-1.128-2.722l-4.856-4.856c-0.75-0.75-1.737-1.126-2.722-1.126z"></path>
<path d="M9.238 20.702c-1.199 1.199-1.199 3.139 0 4.338l4.079 4.079c1.199 1.199 3.139 1.199 4.338 0s1.199-3.139 0-4.338l-4.079-4.079c-1.199-1.199-3.139-1.199-4.338 0z"></path>
<path d="M15.875 32c-1.245 0-2.416-0.486-3.297-1.365l-4.856-4.856c-0.882-0.88-1.365-2.052-1.365-3.297s0.486-2.416 1.365-3.297c0.88-0.88 2.050-1.363 3.297-1.363s2.418 0.484 3.297 1.363l4.856 4.856c0.88 0.882 1.365 2.052 1.365 3.297s-0.486 2.416-1.365 3.297c-0.88 0.88-2.052 1.365-3.297 1.365zM11.020 18.636c-0.985 0-1.971 0.376-2.722 1.125s-1.128 1.694-1.128 2.722 0.4 1.995 1.128 2.722l4.856 4.856c0.727 0.727 1.694 1.128 2.722 1.128s1.995-0.4 2.722-1.128c0.727-0.727 1.128-1.694 1.128-2.722s-0.4-1.995-1.128-2.722l-4.856-4.856c-0.75-0.75-1.737-1.125-2.722-1.125z"></path>
</symbol>
</defs>
</svg>
