<svg width="37" height="37" viewBox="0 0 37 37" fill="none" xmlns="http://www.w3.org/2000/svg">
<path d="M33.9207 16.1268H20.5874V2.79351C20.5874 1.56622 19.5925 0.571289 18.3652 0.571289C17.1379 0.571289 16.143 1.56622 16.143 2.79351V16.1268H2.80962C1.58233 16.1268 0.587402 17.1218 0.587402 18.3491C0.587402 19.5764 1.58233 20.5713 2.80962 20.5713H16.143V33.9046C16.143 35.1319 17.1379 36.1268 18.3652 36.1268C19.5925 36.1268 20.5874 35.1319 20.5874 33.9046V20.5713H33.9207C35.148 20.5713 36.143 19.5764 36.143 18.3491C36.143 17.1218 35.148 16.1268 33.9207 16.1268Z" fill="black"/>
</svg>
